<svg version="1.1" id="Layer_1" xmlns="http://www.w3.org/2000/svg" xmlns:xlink="http://www.w3.org/1999/xlink" x="0px" y="0px"
	 width="100%" viewBox="0 0 500 500" enable-background="new 0 0 500 500" xml:space="preserve">
<path fill="#FFFFFF" opacity="1.000000" stroke="none"
			d="
M239.000000,501.000000 
	C159.333359,501.000000 80.166702,501.000000 1.000042,501.000000 
	C1.000028,334.333405 1.000028,167.666779 1.000014,1.000132 
	C167.666565,1.000088 334.333130,1.000088 500.999756,1.000044 
	C500.999847,167.666519 500.999847,334.333038 500.999939,500.999786 
	C413.833344,501.000000 326.666656,501.000000 239.000000,501.000000 
M138.278839,200.019989 
	C137.960999,201.085159 137.070526,202.426163 137.427124,203.166473 
	C138.774750,205.964249 140.527222,208.567017 142.207565,211.375427 
	C144.188599,210.289520 145.792480,209.447327 147.361633,208.544769 
	C180.807266,189.307663 214.269638,170.099380 247.652206,150.753433 
	C250.315369,149.210083 252.201416,149.214920 254.834854,150.746887 
	C288.471771,170.314636 322.176819,189.765305 355.872009,209.232803 
	C357.104614,209.944946 358.413605,210.524857 360.002106,211.325119 
	C361.960083,207.705246 363.730865,204.431442 365.566711,201.037338 
	C364.107086,200.119370 363.153839,199.474976 362.159790,198.901184 
	C326.152008,178.116943 290.118591,157.376862 254.173325,136.485107 
	C251.466309,134.911758 249.702423,135.610565 247.415665,136.940933 
	C226.715652,148.983551 205.971161,160.949722 185.231003,172.923264 
	C183.282440,174.048187 181.274292,175.069885 178.893280,176.355820 
	C178.689865,172.518311 178.526108,169.428894 178.370621,166.495544 
	C170.985733,166.495544 164.093124,166.495544 157.194672,166.495544 
	C157.116867,167.561630 157.041092,168.222839 157.024460,168.885513 
	C156.853912,175.679199 158.915543,183.779755 155.905319,188.900116 
	C152.884445,194.038559 144.810059,196.206055 138.278839,200.019989 
M331.865662,231.526855 
	C331.506439,239.531113 331.147186,247.535355 330.781311,255.687256 
	C333.668549,255.687256 335.707245,255.687256 338.203613,255.687256 
	C338.203613,251.525421 338.203613,247.678650 338.203613,243.923828 
	C344.055969,247.224930 343.354034,258.433624 353.600983,255.683014 
	C353.600983,247.457397 353.600983,239.439621 353.600983,231.599213 
	C351.263977,231.599213 349.349304,231.599213 346.897827,231.599213 
	C346.897827,235.773804 346.897827,239.600677 346.897827,244.779694 
	C344.388184,240.956100 342.467804,238.464523 341.024261,235.721924 
	C339.184296,232.226166 336.700500,230.442093 331.865662,231.526855 
M136.564285,236.744049 
	C136.970642,239.996704 135.182983,240.575745 132.383224,240.561020 
	C124.930443,240.521805 130.299698,234.153778 127.522911,231.571411 
	C125.819160,231.571411 123.773689,231.571411 121.579132,231.571411 
	C121.579132,239.838959 121.579132,247.742294 121.579132,255.710098 
	C123.930634,255.710098 125.990097,255.710098 128.497711,255.710098 
	C128.497711,252.460388 128.497711,249.530090 128.497711,246.427612 
	C131.352921,246.427612 133.752090,246.427612 136.580856,246.427612 
	C136.580856,249.702011 136.580856,252.649872 136.580856,255.737656 
	C139.087540,255.737656 141.151978,255.737656 143.362396,255.737656 
	C143.362396,247.537537 143.362396,239.634857 143.362396,231.472565 
	C141.143661,231.472565 139.210434,231.472565 136.857407,231.472565 
	C136.759201,232.947388 136.663605,234.383102 136.564285,236.744049 
M363.336365,232.591919 
	C357.263428,236.891052 355.381042,243.289825 358.354309,249.527374 
	C360.941193,254.954330 367.541016,257.587036 373.696472,255.647476 
	C379.611176,253.783783 381.963013,249.447739 380.869629,242.315735 
	C376.836273,242.315735 372.795410,242.315735 368.510895,242.315735 
	C368.584381,243.955872 368.641479,245.230240 368.707214,246.697113 
	C370.808563,246.875229 372.675903,247.033493 375.219574,247.249100 
	C372.247162,250.640045 369.243805,250.888123 366.442139,248.816986 
	C363.512238,246.651062 363.318024,243.360214 365.026276,240.289566 
	C366.853729,237.004517 369.624634,237.366882 372.806885,238.502670 
	C375.234039,239.368973 377.971741,239.365158 381.076569,239.822937 
	C377.985474,231.692444 372.630554,229.590851 363.336365,232.591919 
M238.725616,232.512680 
	C233.562241,231.922455 228.398849,231.332245 223.005554,230.715729 
	C223.005554,239.742279 223.005554,247.744904 223.005554,255.787582 
	C225.290497,255.787582 227.223343,255.787582 229.412598,255.787582 
	C229.613983,253.161774 229.800644,250.728027 230.097519,246.857346 
	C233.382095,252.404312 234.590149,258.920288 242.188034,255.141068 
	C241.506195,253.847290 240.832123,252.552811 240.143646,251.266022 
	C239.371216,249.822311 238.585754,248.385559 237.830734,246.991501 
	C244.008682,241.491562 244.353531,238.049927 238.725616,232.512680 
M294.199005,252.711548 
	C298.840607,246.727661 299.157288,240.440796 295.067017,235.479752 
	C291.425873,231.063446 285.034271,229.696182 279.699707,232.192398 
	C274.280548,234.728226 271.578094,240.606110 272.990173,246.786011 
	C275.037720,255.746902 284.981293,258.837036 294.199005,252.711548 
M245.131561,245.156387 
	C247.211075,253.015732 251.597107,256.568604 258.723175,256.166168 
	C264.520355,255.838791 269.103973,251.818802 270.107178,246.181976 
	C271.466553,238.544006 266.788727,231.915771 259.427948,231.050018 
	C251.383026,230.103806 245.618805,235.441162 245.131561,245.156387 
M192.040237,252.403549 
	C190.986069,250.541458 189.931915,248.679352 188.770599,246.628006 
	C192.984344,244.366562 195.057999,241.187531 193.478683,236.664413 
	C191.890045,232.114609 187.951904,231.316071 183.755981,231.250137 
	C180.639984,231.201157 177.522598,231.240494 174.192490,231.240494 
	C174.192490,239.727798 174.192490,247.638016 174.192490,255.693756 
	C176.474854,255.693756 178.521317,255.693756 181.018402,255.693756 
	C181.018402,252.858734 181.018402,250.326233 181.018402,246.732178 
	C184.668564,251.610931 185.426407,259.038635 193.470398,255.415298 
	C193.180283,254.776947 192.787201,253.912003 192.040237,252.403549 
M168.680191,247.748749 
	C166.977524,243.076828 165.465729,238.319733 163.444702,233.789856 
	C162.905685,232.581726 160.797760,231.385452 159.428116,231.405594 
	C157.607727,231.432388 154.703552,232.191925 154.176239,233.442490 
	C151.125992,240.676361 148.638229,248.147400 145.913361,255.667023 
	C151.226105,256.137085 150.775024,255.431244 154.271255,253.196930 
	C156.411301,251.829300 162.118896,251.939987 162.876511,253.279831 
	C165.185074,257.362488 168.057465,255.661316 171.437317,255.847153 
	C170.518692,253.136200 169.732681,250.816589 168.680191,247.748749 
M335.022125,302.119446 
	C342.828857,300.682648 346.951752,295.687958 346.379425,288.360596 
	C345.872742,281.873688 341.181915,277.220398 334.770813,276.844818 
	C327.139557,276.397736 321.296631,281.434296 320.975403,288.736359 
	C320.627350,296.648163 325.623993,301.693268 335.022125,302.119446 
M368.329315,281.167542 
	C363.333008,274.399261 356.367889,277.995819 349.963745,276.857788 
	C349.963745,281.682434 349.963745,285.653442 349.963745,289.624481 
	C349.963745,293.709808 349.963745,297.795135 349.963745,302.073242 
	C352.339722,301.962708 354.083710,301.881561 356.348755,301.776154 
	C356.348755,298.581909 356.348755,295.754517 356.348755,292.335602 
	C360.903595,295.703644 360.440491,304.862457 369.091827,301.359039 
	C367.367157,298.330902 365.739807,295.473663 363.992126,292.405182 
	C368.519226,290.182953 370.165833,286.638123 368.329315,281.167542 
M227.717148,297.072937 
	C228.157730,296.065857 228.598328,295.058777 229.038910,294.051727 
	C228.811630,293.644165 228.584335,293.236603 228.357056,292.829041 
	C225.921127,293.652313 223.332230,294.185516 221.086716,295.369812 
	C218.052521,296.970093 215.391556,297.127899 212.947571,294.601074 
	C210.487976,292.058167 210.446045,287.100128 212.855835,284.495544 
	C215.250992,281.906799 217.927063,282.035095 220.984436,283.558807 
	C223.322495,284.723999 225.958344,285.291718 229.527420,286.479950 
	C226.191406,278.471252 221.241425,275.769470 214.596939,277.030029 
	C208.888916,278.112885 205.010910,283.039917 204.944489,289.293549 
	C204.884232,294.968750 207.489288,299.160614 212.334610,301.185059 
	C217.650238,303.405975 222.590500,302.234802 227.717148,297.072937 
M143.681458,301.822296 
	C152.540710,302.605957 156.344482,300.566559 158.885605,292.580536 
	C155.702545,293.657227 153.112366,294.197540 150.857697,295.378418 
	C147.829208,296.964600 145.158295,297.151489 142.695572,294.641754 
	C140.336517,292.237671 140.272888,286.993378 142.565460,284.501221 
	C144.954285,281.904449 147.647522,282.013062 150.706833,283.519684 
	C153.072281,284.684570 155.703354,285.310028 159.396805,286.581757 
	C157.098495,280.096466 153.793701,277.477722 148.895645,276.955353 
	C142.280197,276.249817 136.940170,279.565399 135.217041,285.293945 
	C133.113571,292.286926 135.942352,298.215851 143.681458,301.822296 
M280.785248,299.052277 
	C285.781647,296.225555 289.891083,297.193634 292.233002,301.740906 
	C294.131042,301.740906 296.029083,301.740906 298.307465,301.740906 
	C295.471649,293.919800 292.875580,286.425659 289.945282,279.064636 
	C289.539185,278.044525 287.482147,277.153992 286.188934,277.153381 
	C284.701355,277.152679 282.291901,277.833954 281.872986,278.865082 
	C278.842529,286.323792 276.214355,293.945892 273.458801,301.516266 
	C273.740601,301.930206 274.022369,302.344177 274.304169,302.758118 
	C276.337006,301.782074 278.369812,300.806061 280.785248,299.052277 
M232.885391,290.303986 
	C232.905212,291.299438 232.857330,292.301697 232.956116,293.289246 
	C233.483856,298.564728 236.748276,301.755524 241.949326,302.129730 
	C247.977509,302.563385 252.560257,300.074554 253.194550,294.801208 
	C253.890244,289.017365 253.352966,283.085205 253.352966,276.974335 
	C251.331161,277.077850 249.610580,277.165955 247.672485,277.265167 
	C247.672485,282.175781 247.702896,286.647217 247.661713,291.117981 
	C247.634644,294.057068 246.740082,296.552734 243.266876,296.540131 
	C239.830978,296.527679 238.906876,294.214111 238.960739,291.143860 
	C239.041473,286.543976 238.981750,281.941650 238.981750,277.266724 
	C236.723877,277.266724 234.991653,277.266724 232.885132,277.266724 
	C232.885132,281.454132 232.885132,285.406036 232.885391,290.303986 
M175.293350,297.704987 
	C176.355621,298.017120 178.226135,298.136627 178.353607,298.671478 
	C179.472473,303.366455 182.784531,301.969269 186.056900,301.765686 
	C183.330017,294.219849 180.837845,286.853638 177.910385,279.664642 
	C177.395691,278.400726 175.056793,277.202972 173.562149,277.205170 
	C172.067932,277.207336 169.733337,278.412506 169.222336,279.677948 
	C166.314362,286.879211 163.841858,294.256378 160.891281,302.495087 
	C163.630234,301.871460 167.252930,301.853577 167.560349,300.835083 
	C168.804535,296.712830 171.768585,297.884094 175.293350,297.704987 
M200.741806,231.231644 
	C199.490097,231.889755 197.174484,232.510971 197.150177,233.211685 
	C196.888016,240.766891 196.986694,248.334610 196.986694,255.692322 
	C202.707916,255.692322 207.635895,255.692322 212.910889,255.692322 
	C212.757828,253.789810 212.633331,252.242416 212.516403,250.789093 
	C204.177643,249.900330 204.177643,249.900330 204.471344,246.204102 
	C206.821945,246.087982 209.215164,245.969757 211.935181,245.835388 
	C211.716919,243.862289 211.563599,242.476120 211.419556,241.174042 
	C203.969696,240.630096 203.969696,240.630096 204.753433,237.096405 
	C207.339172,236.966476 209.935410,236.836014 212.890518,236.687531 
	C212.751694,234.687210 212.643753,233.131866 212.511856,231.231430 
	C208.619247,231.231430 205.148849,231.231430 200.741806,231.231644 
M311.460388,241.057846 
	C308.370300,241.346832 307.152313,240.265060 308.591034,236.736481 
	C311.557617,236.736481 314.478699,236.736481 317.804352,236.736481 
	C317.685242,234.692917 317.594757,233.140015 317.502563,231.558563 
	C311.792145,231.558563 306.552917,231.558563 301.223785,231.558563 
	C301.223785,239.807785 301.223785,247.722977 301.223785,255.652710 
	C303.540497,255.652710 305.581787,255.652710 308.006958,255.652710 
	C308.006958,252.508911 308.006958,249.729553 308.006958,246.786392 
	C310.477631,246.541626 312.578461,246.333496 314.905273,246.102982 
	C314.671204,243.952316 316.655914,241.019608 311.460388,241.057846 
M306.104584,297.310181 
	C306.170441,298.772186 306.236267,300.234192 306.308502,301.838257 
	C308.369751,301.838257 310.152832,301.838257 312.288849,301.838257 
	C312.288849,295.233490 312.288849,288.796082 312.288849,282.201935 
	C314.581512,282.054382 316.534027,281.928711 318.705994,281.788910 
	C318.705994,280.204590 318.705994,278.820984 318.705994,277.229492 
	C312.387268,277.229492 306.285980,277.229492 300.046631,277.229492 
	C300.046631,278.839996 300.046631,280.346069 300.046631,281.848816 
	C302.219666,281.967590 303.994629,282.064606 306.104584,282.179932 
	C306.104584,287.078613 306.104584,291.714600 306.104584,297.310181 
M320.290741,241.536774 
	C320.290741,246.279160 320.290741,251.021545 320.290741,255.837891 
	C323.002014,255.837891 324.958008,255.837891 327.020020,255.837891 
	C327.020020,247.603134 327.020020,239.567154 327.020020,231.475616 
	C324.740051,231.475616 322.811646,231.475616 320.291046,231.475616 
	C320.291046,234.665146 320.291046,237.612183 320.290741,241.536774 
M195.010773,289.458313 
	C195.010773,285.370422 195.010773,281.282532 195.010773,276.968628 
	C192.650772,277.084045 190.918900,277.168732 189.263260,277.249725 
	C189.263260,285.695587 189.263260,293.731873 189.263260,301.760986 
	C193.975250,301.760986 198.386963,301.760986 203.110031,301.760986 
	C202.918732,300.107422 202.759903,298.734619 202.571945,297.109985 
	C199.931641,297.109985 197.668335,297.109985 195.010773,297.109985 
	C195.010773,294.689789 195.010773,292.565460 195.010773,289.458313 
M265.458893,302.007477 
	C267.574432,302.007477 269.690002,302.007477 272.143311,302.007477 
	C271.919281,300.099670 271.758209,298.728333 271.567413,297.103546 
	C268.925659,297.103546 266.662537,297.103546 263.894226,297.103546 
	C263.894226,290.262878 263.894226,283.712708 263.894226,276.968414 
	C261.631683,277.082611 259.898712,277.170074 258.276489,277.251923 
	C258.276489,285.719971 258.276489,293.757690 258.276489,302.007477 
	C260.555450,302.007477 262.526520,302.007477 265.458893,302.007477 
z"/>
<path fill="#EE4252" opacity="1.000000" stroke="none"
			d="
M138.614624,199.847794 
	C144.810059,196.206055 152.884445,194.038559 155.905319,188.900116 
	C158.915543,183.779755 156.853912,175.679199 157.024460,168.885513 
	C157.041092,168.222839 157.116867,167.561630 157.194672,166.495544 
	C164.093124,166.495544 170.985733,166.495544 178.370621,166.495544 
	C178.526108,169.428894 178.689865,172.518311 178.893280,176.355820 
	C181.274292,175.069885 183.282440,174.048187 185.231003,172.923264 
	C205.971161,160.949722 226.715652,148.983551 247.415665,136.940933 
	C249.702423,135.610565 251.466309,134.911758 254.173325,136.485107 
	C290.118591,157.376862 326.152008,178.116943 362.159790,198.901184 
	C363.153839,199.474976 364.107086,200.119370 365.566711,201.037338 
	C363.730865,204.431442 361.960083,207.705246 360.002106,211.325119 
	C358.413605,210.524857 357.104614,209.944946 355.872009,209.232803 
	C322.176819,189.765305 288.471771,170.314636 254.834854,150.746887 
	C252.201416,149.214920 250.315369,149.210083 247.652206,150.753433 
	C214.269638,170.099380 180.807266,189.307663 147.361633,208.544769 
	C145.792480,209.447327 144.188599,210.289520 142.207565,211.375427 
	C140.527222,208.567017 138.774750,205.964249 137.427124,203.166473 
	C137.070526,202.426163 137.960999,201.085159 138.614624,199.847794 
z"/>
<path fill="#EF4555" opacity="1.000000" stroke="none"
			d="
M332.273315,231.409882 
	C336.700500,230.442093 339.184296,232.226166 341.024261,235.721924 
	C342.467804,238.464523 344.388184,240.956100 346.897827,244.779694 
	C346.897827,239.600677 346.897827,235.773804 346.897827,231.599213 
	C349.349304,231.599213 351.263977,231.599213 353.600983,231.599213 
	C353.600983,239.439621 353.600983,247.457397 353.600983,255.683014 
	C343.354034,258.433624 344.055969,247.224930 338.203613,243.923828 
	C338.203613,247.678650 338.203613,251.525421 338.203613,255.687256 
	C335.707245,255.687256 333.668549,255.687256 330.781311,255.687256 
	C331.147186,247.535355 331.506439,239.531113 332.273315,231.409882 
z"/>
<path fill="#EF4C5B" opacity="1.000000" stroke="none"
			d="
M136.566147,236.281433 
	C136.663605,234.383102 136.759201,232.947388 136.857407,231.472565 
	C139.210434,231.472565 141.143661,231.472565 143.362396,231.472565 
	C143.362396,239.634857 143.362396,247.537537 143.362396,255.737656 
	C141.151978,255.737656 139.087540,255.737656 136.580856,255.737656 
	C136.580856,252.649872 136.580856,249.702011 136.580856,246.427612 
	C133.752090,246.427612 131.352921,246.427612 128.497711,246.427612 
	C128.497711,249.530090 128.497711,252.460388 128.497711,255.710098 
	C125.990097,255.710098 123.930634,255.710098 121.579132,255.710098 
	C121.579132,247.742294 121.579132,239.838959 121.579132,231.571411 
	C123.773689,231.571411 125.819160,231.571411 127.522911,231.571411 
	C130.299698,234.153778 124.930443,240.521805 132.383224,240.561020 
	C135.182983,240.575745 136.970642,239.996704 136.566147,236.281433 
z"/>
<path fill="#EF4555" opacity="1.000000" stroke="none"
			d="
M363.675903,232.398621 
	C372.630554,229.590851 377.985474,231.692444 381.076569,239.822937 
	C377.971741,239.365158 375.234039,239.368973 372.806885,238.502670 
	C369.624634,237.366882 366.853729,237.004517 365.026276,240.289566 
	C363.318024,243.360214 363.512238,246.651062 366.442139,248.816986 
	C369.243805,250.888123 372.247162,250.640045 375.219574,247.249100 
	C372.675903,247.033493 370.808563,246.875229 368.707214,246.697113 
	C368.641479,245.230240 368.584381,243.955872 368.510895,242.315735 
	C372.795410,242.315735 376.836273,242.315735 380.869629,242.315735 
	C381.963013,249.447739 379.611176,253.783783 373.696472,255.647476 
	C367.541016,257.587036 360.941193,254.954330 358.354309,249.527374 
	C355.381042,243.289825 357.263428,236.891052 363.675903,232.398621 
z"/>
<path fill="#EF4757" opacity="1.000000" stroke="none"
			d="
M239.057983,232.716125 
	C244.353531,238.049927 244.008682,241.491562 237.830734,246.991501 
	C238.585754,248.385559 239.371216,249.822311 240.143646,251.266022 
	C240.832123,252.552811 241.506195,253.847290 242.188034,255.141068 
	C234.590149,258.920288 233.382095,252.404312 230.097519,246.857346 
	C229.800644,250.728027 229.613983,253.161774 229.412598,255.787582 
	C227.223343,255.787582 225.290497,255.787582 223.005554,255.787582 
	C223.005554,247.744904 223.005554,239.742279 223.005554,230.715729 
	C228.398849,231.332245 233.562241,231.922455 239.057983,232.716125 
M235.065750,238.179337 
	C233.502151,237.730667 231.938538,237.281998 229.940521,236.708679 
	C229.940521,238.910095 229.940521,240.278320 229.940521,241.984833 
	C232.547668,241.845078 235.625198,243.416443 235.065750,238.179337 
z"/>
<path fill="#EF4555" opacity="1.000000" stroke="none"
			d="
M293.920898,252.957870 
	C284.981293,258.837036 275.037720,255.746902 272.990173,246.786011 
	C271.578094,240.606110 274.280548,234.728226 279.699707,232.192398 
	C285.034271,229.696182 291.425873,231.063446 295.067017,235.479752 
	C299.157288,240.440796 298.840607,246.727661 293.920898,252.957870 
M281.145020,248.109131 
	C283.743439,250.505661 287.134735,250.972595 288.907684,248.190552 
	C290.290161,246.021240 290.273163,242.313324 289.492126,239.704025 
	C289.138855,238.523865 285.211365,237.456619 283.272766,237.909744 
	C279.394470,238.816238 279.548096,242.386383 279.974182,245.624298 
	C280.056610,246.250793 280.435425,246.838287 281.145020,248.109131 
z"/>
<path fill="#EF4555" opacity="1.000000" stroke="none"
			d="
M245.107285,244.744537 
	C245.618805,235.441162 251.383026,230.103806 259.427948,231.050018 
	C266.788727,231.915771 271.466553,238.544006 270.107178,246.181976 
	C269.103973,251.818802 264.520355,255.838791 258.723175,256.166168 
	C251.597107,256.568604 247.211075,253.015732 245.107285,244.744537 
M255.359589,237.845566 
	C251.519684,240.245789 250.937439,243.892380 253.266815,247.143021 
	C254.386047,248.704926 257.899261,249.673553 259.937073,249.205917 
	C263.462006,248.397034 263.658234,244.891357 263.065216,241.838959 
	C262.330414,238.056900 259.749969,236.781647 255.359589,237.845566 
z"/>
<path fill="#EF4555" opacity="1.000000" stroke="none"
			d="
M192.217163,252.725311 
	C192.787201,253.912003 193.180283,254.776947 193.470398,255.415298 
	C185.426407,259.038635 184.668564,251.610931 181.018402,246.732178 
	C181.018402,250.326233 181.018402,252.858734 181.018402,255.693756 
	C178.521317,255.693756 176.474854,255.693756 174.192490,255.693756 
	C174.192490,247.638016 174.192490,239.727798 174.192490,231.240494 
	C177.522598,231.240494 180.639984,231.201157 183.755981,231.250137 
	C187.951904,231.316071 191.890045,232.114609 193.478683,236.664413 
	C195.057999,241.187531 192.984344,244.366562 188.770599,246.628006 
	C189.931915,248.679352 190.986069,250.541458 192.217163,252.725311 
M180.913147,238.712128 
	C181.462250,239.842468 181.829010,241.739563 182.603134,241.923660 
	C183.767593,242.200562 185.326447,241.458450 186.479904,240.758102 
	C186.832397,240.544083 186.537735,238.292831 186.312286,238.252762 
	C184.589615,237.946579 182.810776,237.956589 180.913147,238.712128 
z"/>
<path fill="#EF4555" opacity="1.000000" stroke="none"
			d="
M168.813416,248.122864 
	C169.732681,250.816589 170.518692,253.136200 171.437317,255.847153 
	C168.057465,255.661316 165.185074,257.362488 162.876511,253.279831 
	C162.118896,251.939987 156.411301,251.829300 154.271255,253.196930 
	C150.775024,255.431244 151.226105,256.137085 145.913361,255.667023 
	C148.638229,248.147400 151.125992,240.676361 154.176239,233.442490 
	C154.703552,232.191925 157.607727,231.432388 159.428116,231.405594 
	C160.797760,231.385452 162.905685,232.581726 163.444702,233.789856 
	C165.465729,238.319733 166.977524,243.076828 168.813416,248.122864 
z"/>
<path fill="#252544" opacity="1.000000" stroke="none"
			d="
M334.645447,302.139038 
	C325.623993,301.693268 320.627350,296.648163 320.975403,288.736359 
	C321.296631,281.434296 327.139557,276.397736 334.770813,276.844818 
	C341.181915,277.220398 345.872742,281.873688 346.379425,288.360596 
	C346.951752,295.687958 342.828857,300.682648 334.645447,302.139038 
M330.626892,295.961456 
	C334.371613,297.456146 337.678314,296.868103 339.414368,293.067078 
	C340.930664,289.747101 341.065002,285.698242 337.593445,283.786560 
	C335.514313,282.641663 331.512604,282.676270 329.628998,283.985229 
	C326.066925,286.460541 326.396301,290.511810 328.579620,294.179749 
	C328.905853,294.727844 329.499237,295.116974 330.626892,295.961456 
z"/>
<path fill="#222241" opacity="1.000000" stroke="none"
			d="
M368.522827,281.477966 
	C370.165833,286.638123 368.519226,290.182953 363.992126,292.405182 
	C365.739807,295.473663 367.367157,298.330902 369.091827,301.359039 
	C360.440491,304.862457 360.903595,295.703644 356.348755,292.335602 
	C356.348755,295.754517 356.348755,298.581909 356.348755,301.776154 
	C354.083710,301.881561 352.339722,301.962708 349.963745,302.073242 
	C349.963745,297.795135 349.963745,293.709808 349.963745,289.624481 
	C349.963745,285.653442 349.963745,281.682434 349.963745,276.857788 
	C356.367889,277.995819 363.333008,274.399261 368.522827,281.477966 
M360.997772,288.019684 
	C361.544403,286.552826 362.091064,285.085938 362.637695,283.619110 
	C360.631989,282.956421 358.626282,282.293732 356.188904,281.488434 
	C356.188904,284.248840 356.188904,286.000610 356.188904,288.150177 
	C357.581604,288.150177 358.851166,288.150177 360.997772,288.019684 
z"/>
<path fill="#2B2B49" opacity="1.000000" stroke="none"
			d="
M227.485474,297.360596 
	C222.590500,302.234802 217.650238,303.405975 212.334610,301.185059 
	C207.489288,299.160614 204.884232,294.968750 204.944489,289.293549 
	C205.010910,283.039917 208.888916,278.112885 214.596939,277.030029 
	C221.241425,275.769470 226.191406,278.471252 229.527420,286.479950 
	C225.958344,285.291718 223.322495,284.723999 220.984436,283.558807 
	C217.927063,282.035095 215.250992,281.906799 212.855835,284.495544 
	C210.446045,287.100128 210.487976,292.058167 212.947571,294.601074 
	C215.391556,297.127899 218.052521,296.970093 221.086716,295.369812 
	C223.332230,294.185516 225.921127,293.652313 228.357056,292.829041 
	C228.584335,293.236603 228.811630,293.644165 229.038910,294.051727 
	C228.598328,295.058777 228.157730,296.065857 227.485474,297.360596 
z"/>
<path fill="#272746" opacity="1.000000" stroke="none"
			d="
M143.332245,301.696655 
	C135.942352,298.215851 133.113571,292.286926 135.217041,285.293945 
	C136.940170,279.565399 142.280197,276.249817 148.895645,276.955353 
	C153.793701,277.477722 157.098495,280.096466 159.396805,286.581757 
	C155.703354,285.310028 153.072281,284.684570 150.706833,283.519684 
	C147.647522,282.013062 144.954285,281.904449 142.565460,284.501221 
	C140.272888,286.993378 140.336517,292.237671 142.695572,294.641754 
	C145.158295,297.151489 147.829208,296.964600 150.857697,295.378418 
	C153.112366,294.197540 155.702545,293.657227 158.885605,292.580536 
	C156.344482,300.566559 152.540710,302.605957 143.332245,301.696655 
z"/>
<path fill="#272746" opacity="1.000000" stroke="none"
			d="
M280.593933,299.441162 
	C278.369812,300.806061 276.337006,301.782074 274.304169,302.758118 
	C274.022369,302.344177 273.740601,301.930206 273.458801,301.516266 
	C276.214355,293.945892 278.842529,286.323792 281.872986,278.865082 
	C282.291901,277.833954 284.701355,277.152679 286.188934,277.153381 
	C287.482147,277.153992 289.539185,278.044525 289.945282,279.064636 
	C292.875580,286.425659 295.471649,293.919800 298.307465,301.740906 
	C296.029083,301.740906 294.131042,301.740906 292.231049,301.744537 
	C289.891083,297.193634 285.781647,296.225555 280.593933,299.441162 
M287.143677,287.730042 
	C286.691315,286.852112 286.238922,285.974152 285.513824,284.566925 
	C284.483429,287.710754 283.687439,290.139343 282.803314,292.836945 
	C284.975006,292.836945 286.594055,292.836945 288.635040,292.836945 
	C288.187408,291.247437 287.802765,289.881500 287.143677,287.730042 
z"/>
<path fill="#252544" opacity="1.000000" stroke="none"
			d="
M232.885254,289.830994 
	C232.885132,285.406036 232.885132,281.454132 232.885132,277.266724 
	C234.991653,277.266724 236.723877,277.266724 238.981750,277.266724 
	C238.981750,281.941650 239.041473,286.543976 238.960739,291.143860 
	C238.906876,294.214111 239.830978,296.527679 243.266876,296.540131 
	C246.740082,296.552734 247.634644,294.057068 247.661713,291.117981 
	C247.702896,286.647217 247.672485,282.175781 247.672485,277.265167 
	C249.610580,277.165955 251.331161,277.077850 253.352966,276.974335 
	C253.352966,283.085205 253.890244,289.017365 253.194550,294.801208 
	C252.560257,300.074554 247.977509,302.563385 241.949326,302.129730 
	C236.748276,301.755524 233.483856,298.564728 232.956116,293.289246 
	C232.857330,292.301697 232.905212,291.299438 232.885254,289.830994 
z"/>
<path fill="#272746" opacity="1.000000" stroke="none"
			d="
M174.842957,297.704590 
	C171.768585,297.884094 168.804535,296.712830 167.560349,300.835083 
	C167.252930,301.853577 163.630234,301.871460 160.891281,302.495087 
	C163.841858,294.256378 166.314362,286.879211 169.222336,279.677948 
	C169.733337,278.412506 172.067932,277.207336 173.562149,277.205170 
	C175.056793,277.202972 177.395691,278.400726 177.910385,279.664642 
	C180.837845,286.853638 183.330017,294.219849 186.056900,301.765686 
	C182.784531,301.969269 179.472473,303.366455 178.353607,298.671478 
	C178.226135,298.136627 176.355621,298.017120 174.842957,297.704590 
M175.824127,290.158295 
	C175.128067,288.351349 174.432007,286.544434 173.479111,284.070740 
	C172.405060,287.289734 171.552750,289.844208 170.700424,292.398712 
	C171.017136,292.810760 171.333862,293.222839 171.650574,293.634888 
	C173.107010,292.741608 174.563461,291.848297 175.824127,290.158295 
z"/>
<path fill="#EF4656" opacity="1.000000" stroke="none"
			d="
M201.210129,231.231537 
	C205.148849,231.231430 208.619247,231.231430 212.511856,231.231430 
	C212.643753,233.131866 212.751694,234.687210 212.890518,236.687531 
	C209.935410,236.836014 207.339172,236.966476 204.753433,237.096405 
	C203.969696,240.630096 203.969696,240.630096 211.419556,241.174042 
	C211.563599,242.476120 211.716919,243.862289 211.935181,245.835388 
	C209.215164,245.969757 206.821945,246.087982 204.471344,246.204102 
	C204.177643,249.900330 204.177643,249.900330 212.516403,250.789093 
	C212.633331,252.242416 212.757828,253.789810 212.910889,255.692322 
	C207.635895,255.692322 202.707916,255.692322 196.986694,255.692322 
	C196.986694,248.334610 196.888016,240.766891 197.150177,233.211685 
	C197.174484,232.510971 199.490097,231.889755 201.210129,231.231537 
z"/>
<path fill="#EF4757" opacity="1.000000" stroke="none"
			d="
M311.904938,241.059357 
	C316.655914,241.019608 314.671204,243.952316 314.905273,246.102982 
	C312.578461,246.333496 310.477631,246.541626 308.006958,246.786392 
	C308.006958,249.729553 308.006958,252.508911 308.006958,255.652710 
	C305.581787,255.652710 303.540497,255.652710 301.223785,255.652710 
	C301.223785,247.722977 301.223785,239.807785 301.223785,231.558563 
	C306.552917,231.558563 311.792145,231.558563 317.502563,231.558563 
	C317.594757,233.140015 317.685242,234.692917 317.804352,236.736481 
	C314.478699,236.736481 311.557617,236.736481 308.591034,236.736481 
	C307.152313,240.265060 308.370300,241.346832 311.904938,241.059357 
z"/>
<path fill="#242443" opacity="1.000000" stroke="none"
			d="
M306.104584,296.830383 
	C306.104584,291.714600 306.104584,287.078613 306.104584,282.179932 
	C303.994629,282.064606 302.219666,281.967590 300.046631,281.848816 
	C300.046631,280.346069 300.046631,278.839996 300.046631,277.229492 
	C306.285980,277.229492 312.387268,277.229492 318.705994,277.229492 
	C318.705994,278.820984 318.705994,280.204590 318.705994,281.788910 
	C316.534027,281.928711 314.581512,282.054382 312.288849,282.201935 
	C312.288849,288.796082 312.288849,295.233490 312.288849,301.838257 
	C310.152832,301.838257 308.369751,301.838257 306.308502,301.838257 
	C306.236267,300.234192 306.170441,298.772186 306.104584,296.830383 
z"/>
<path fill="#EF4C5B" opacity="1.000000" stroke="none"
			d="
M320.290894,241.047989 
	C320.291046,237.612183 320.291046,234.665146 320.291046,231.475616 
	C322.811646,231.475616 324.740051,231.475616 327.020020,231.475616 
	C327.020020,239.567154 327.020020,247.603134 327.020020,255.837891 
	C324.958008,255.837891 323.002014,255.837891 320.290741,255.837891 
	C320.290741,251.021545 320.290741,246.279160 320.290894,241.047989 
z"/>
<path fill="#212140" opacity="1.000000" stroke="none"
			d="
M195.010773,289.949707 
	C195.010773,292.565460 195.010773,294.689789 195.010773,297.109985 
	C197.668335,297.109985 199.931641,297.109985 202.571945,297.109985 
	C202.759903,298.734619 202.918732,300.107422 203.110031,301.760986 
	C198.386963,301.760986 193.975250,301.760986 189.263260,301.760986 
	C189.263260,293.731873 189.263260,285.695587 189.263260,277.249725 
	C190.918900,277.168732 192.650772,277.084045 195.010773,276.968628 
	C195.010773,281.282532 195.010773,285.370422 195.010773,289.949707 
z"/>
<path fill="#212140" opacity="1.000000" stroke="none"
			d="
M264.978210,302.007477 
	C262.526520,302.007477 260.555450,302.007477 258.276489,302.007477 
	C258.276489,293.757690 258.276489,285.719971 258.276489,277.251923 
	C259.898712,277.170074 261.631683,277.082611 263.894226,276.968414 
	C263.894226,283.712708 263.894226,290.262878 263.894226,297.103546 
	C266.662537,297.103546 268.925659,297.103546 271.567413,297.103546 
	C271.758209,298.728333 271.919281,300.099670 272.143311,302.007477 
	C269.690002,302.007477 267.574432,302.007477 264.978210,302.007477 
z"/>
<path fill="#FEF7F8" opacity="1.000000" stroke="none"
			d="
M235.268677,238.520966 
	C235.625198,243.416443 232.547668,241.845078 229.940521,241.984833 
	C229.940521,240.278320 229.940521,238.910095 229.940521,236.708679 
	C231.938538,237.281998 233.502151,237.730667 235.268677,238.520966 
z"/>
<path fill="#FEF7F8" opacity="1.000000" stroke="none"
			d="
M280.911255,247.776459 
	C280.435425,246.838287 280.056610,246.250793 279.974182,245.624298 
	C279.548096,242.386383 279.394470,238.816238 283.272766,237.909744 
	C285.211365,237.456619 289.138855,238.523865 289.492126,239.704025 
	C290.273163,242.313324 290.290161,246.021240 288.907684,248.190552 
	C287.134735,250.972595 283.743439,250.505661 280.911255,247.776459 
z"/>
<path fill="#FEF7F8" opacity="1.000000" stroke="none"
			d="
M255.712875,237.707108 
	C259.749969,236.781647 262.330414,238.056900 263.065216,241.838959 
	C263.658234,244.891357 263.462006,248.397034 259.937073,249.205917 
	C257.899261,249.673553 254.386047,248.704926 253.266815,247.143021 
	C250.937439,243.892380 251.519684,240.245789 255.712875,237.707108 
z"/>
<path fill="#FEF7F8" opacity="1.000000" stroke="none"
			d="
M180.981262,238.290192 
	C182.810776,237.956589 184.589615,237.946579 186.312286,238.252762 
	C186.537735,238.292831 186.832397,240.544083 186.479904,240.758102 
	C185.326447,241.458450 183.767593,242.200562 182.603134,241.923660 
	C181.829010,241.739563 181.462250,239.842468 180.981262,238.290192 
z"/>
<path fill="#F6F6F8" opacity="1.000000" stroke="none"
			d="
M330.297974,295.770538 
	C329.499237,295.116974 328.905853,294.727844 328.579620,294.179749 
	C326.396301,290.511810 326.066925,286.460541 329.628998,283.985229 
	C331.512604,282.676270 335.514313,282.641663 337.593445,283.786560 
	C341.065002,285.698242 340.930664,289.747101 339.414368,293.067078 
	C337.678314,296.868103 334.371613,297.456146 330.297974,295.770538 
z"/>
<path fill="#F6F6F8" opacity="1.000000" stroke="none"
			d="
M360.559235,288.084930 
	C358.851166,288.150177 357.581604,288.150177 356.188904,288.150177 
	C356.188904,286.000610 356.188904,284.248840 356.188904,281.488434 
	C358.626282,282.293732 360.631989,282.956421 362.637695,283.619080 
	C362.091064,285.085938 361.544403,286.552826 360.559235,288.084930 
z"/>
<path fill="#E7E7EA" opacity="1.000000" stroke="none"
			d="
M287.280884,288.122803 
	C287.802765,289.881500 288.187408,291.247437 288.635040,292.836945 
	C286.594055,292.836945 284.975006,292.836945 282.803314,292.836945 
	C283.687439,290.139343 284.483429,287.710754 285.513824,284.566925 
	C286.238922,285.974152 286.691315,286.852112 287.280884,288.122803 
z"/>
<path fill="#E7E7EA" opacity="1.000000" stroke="none"
			d="
M175.922012,290.556641 
	C174.563461,291.848297 173.107010,292.741608 171.650574,293.634888 
	C171.333862,293.222839 171.017136,292.810760 170.700424,292.398712 
	C171.552750,289.844208 172.405060,287.289734 173.479111,284.070740 
	C174.432007,286.544434 175.128067,288.351349 175.922012,290.556641 
z"/>
</svg>